<?xml version="1.0" encoding="utf-8"?>
<!-- Generator: Adobe Illustrator 16.0.0, SVG Export Plug-In . SVG Version: 6.00 Build 0)  -->
<!DOCTYPE svg PUBLIC "-//W3C//DTD SVG 1.1//EN" "http://www.w3.org/Graphics/SVG/1.1/DTD/svg11.dtd">
<svg version="1.1" id="Capa_1" xmlns="http://www.w3.org/2000/svg" xmlns:xlink="http://www.w3.org/1999/xlink" x="0px" y="0px"
	 width="24px" height="24px" viewBox="0 0 24 24" enable-background="new 0 0 24 24" xml:space="preserve">
<path fill="#F85753" d="M12,2C6.477,2,2,6.477,2,12c0,5.523,4.477,10,10,10c5.523,0,10-4.477,10-10C22,6.477,17.523,2,12,2z
	 M14.392,8.599h-0.958c-0.751,0-0.896,0.358-0.896,0.881v1.155h1.793l-0.237,1.81h-1.558v4.643H10.67v-4.644H9.109v-1.809h1.561
	V9.302c0-1.548,0.946-2.392,2.327-2.392c0.662,0,1.229,0.049,1.395,0.07V8.599z"/>
</svg>
