<?xml version="1.0" encoding="utf-8"?>
<!-- Generator: Adobe Illustrator 16.0.0, SVG Export Plug-In . SVG Version: 6.00 Build 0)  -->
<!DOCTYPE svg PUBLIC "-//W3C//DTD SVG 1.1//EN" "http://www.w3.org/Graphics/SVG/1.1/DTD/svg11.dtd">
<svg version="1.1" id="Capa_1" xmlns="http://www.w3.org/2000/svg" xmlns:xlink="http://www.w3.org/1999/xlink" x="0px" y="0px"
	 width="24px" height="24px" viewBox="0 0 24 24" enable-background="new 0 0 24 24" xml:space="preserve">
<path fill="#F85753" d="M12,2C6.48,2,2,6.48,2,12c0,5.52,4.48,10,10,10c5.52,0,10-4.48,10-10C22,6.48,17.52,2,12,2z M9.751,15.9
	H7.772v-5.681h1.979V15.9z M8.729,9.198c-0.83,0-1.34-0.51-1.34-1.148c0-0.639,0.575-1.149,1.34-1.149c0.83,0,1.34,0.511,1.34,1.149
	C10.069,8.688,9.559,9.198,8.729,9.198z M17.091,15.9h-1.979v-3.002c0-1.021-0.383-1.339-1.021-1.339
	c-0.572,0-0.956,0.511-0.956,1.339V15.9h-1.979v-4.34c0,0-0.063-1.149-0.063-1.34h1.979l0.063,0.894
	c0.255-0.702,0.83-1.212,1.659-1.212c1.404,0,2.298,1.148,2.298,2.999V15.9z"/>
</svg>
