<?xml version="1.0" encoding="utf-8"?>
<!-- Generator: Adobe Illustrator 16.0.0, SVG Export Plug-In . SVG Version: 6.00 Build 0)  -->
<!DOCTYPE svg PUBLIC "-//W3C//DTD SVG 1.1//EN" "http://www.w3.org/Graphics/SVG/1.1/DTD/svg11.dtd">
<svg version="1.1" id="Capa_1" xmlns="http://www.w3.org/2000/svg" xmlns:xlink="http://www.w3.org/1999/xlink" x="0px" y="0px"
	 width="24px" height="24px" viewBox="0 0 24 24" enable-background="new 0 0 24 24" xml:space="preserve">
<path fill="#1E859F" d="M22,12c0,5.52-4.48,10-10,10S2,17.52,2,12C2,6.48,6.48,2,12,2S22,6.48,22,12z"/>
<g>
	<path fill="#EEF5FC" d="M8.729,6.9c-0.766,0-1.34,0.511-1.34,1.149c0,0.638,0.511,1.148,1.34,1.148s1.34-0.51,1.34-1.148
		C10.069,7.411,9.559,6.9,8.729,6.9z"/>
	<rect x="7.772" y="10.219" fill="#EEF5FC" width="1.979" height="5.681"/>
	<path fill="#EEF5FC" d="M14.793,9.9c-0.829,0-1.404,0.51-1.659,1.212l-0.063-0.894h-1.979c0,0.191,0.063,1.34,0.063,1.34V15.9
		h1.979v-3.001c0-0.829,0.383-1.34,0.956-1.34c0.64,0,1.022,0.319,1.022,1.34V15.9h1.979v-3.001
		C17.091,11.049,16.197,9.9,14.793,9.9z"/>
</g>
</svg>
