<?xml version="1.0" encoding="utf-8"?>
<!-- Generator: Adobe Illustrator 16.0.0, SVG Export Plug-In . SVG Version: 6.00 Build 0)  -->
<!DOCTYPE svg PUBLIC "-//W3C//DTD SVG 1.1//EN" "http://www.w3.org/Graphics/SVG/1.1/DTD/svg11.dtd">
<svg version="1.1" id="Capa_1" xmlns="http://www.w3.org/2000/svg" xmlns:xlink="http://www.w3.org/1999/xlink" x="0px" y="0px"
	 width="24px" height="24px" viewBox="0 0 24 24" enable-background="new 0 0 24 24" xml:space="preserve">
<circle fill="#EEF5FC" cx="12" cy="12" r="10"/>
<g>
	<path fill="#33393F" d="M13.814,14.712c-0.568,0.293-1.172,0.455-1.815,0.455c-0.642,0-1.247-0.16-1.816-0.455
		c-0.201-0.103-0.445-0.021-0.547,0.185c-0.1,0.205-0.02,0.455,0.182,0.559C10.492,15.805,11.238,16,12,16
		c0.762,0,1.508-0.195,2.184-0.545c0.203-0.104,0.281-0.354,0.178-0.559C14.262,14.691,14.018,14.607,13.814,14.712z"/>
	<circle fill="#F85753" cx="10" cy="12.752" r="0.833"/>
	<circle fill="#F85753" cx="14.001" cy="12.751" r="0.833"/>
	<path fill="#33393F" d="M18.668,11.916c0-0.92-0.747-1.667-1.668-1.667c-0.425,0-0.814,0.161-1.109,0.423
		c-0.918-0.611-2.127-1.01-3.468-1.078l0.558-1.863l1.525,0.308c0.063,0.771,0.709,1.378,1.497,1.378
		c0.827,0,1.499-0.673,1.499-1.501c0-0.829-0.672-1.5-1.499-1.5c-0.58,0-1.083,0.328-1.333,0.808l-1.893-0.383
		c-0.219-0.043-0.431,0.099-0.479,0.32l-0.727,2.434c-1.336,0.07-2.543,0.469-3.461,1.079C7.816,10.411,7.428,10.25,7,10.25
		c-0.92,0-1.666,0.747-1.666,1.667c0,0.687,0.413,1.274,1.004,1.53c-0.003,0.045-0.004,0.09-0.004,0.137c0,2.209,2.535,4,5.666,4
		c3.129,0,5.667-1.791,5.667-4c0-0.047-0.001-0.092-0.005-0.137C18.254,13.191,18.667,12.604,18.668,11.916z M16.002,7.25
		c0.374,0,0.682,0.288,0.682,0.666s-0.309,0.667-0.682,0.667c-0.375,0-0.686-0.287-0.686-0.667S15.627,7.25,16.002,7.25z
		 M6.393,12.503c-0.149-0.15-0.242-0.357-0.242-0.586s0.093-0.437,0.242-0.587C6.545,11.177,6.76,11.083,7,11.083
		c0.164,0,0.316,0.044,0.445,0.121c-0.431,0.41-0.755,0.883-0.939,1.396C6.466,12.568,6.428,12.538,6.393,12.503z M15.544,15.729
		C14.65,16.359,13.396,16.75,12,16.75c-1.397,0-2.65-0.391-3.545-1.021C7.649,15.16,7.15,14.4,7.15,13.584
		c0-0.814,0.499-1.576,1.305-2.145c0.895-0.631,2.149-1.022,3.546-1.022c1.397,0,2.649,0.39,3.543,1.022
		c0.808,0.569,1.306,1.331,1.306,2.145C16.85,14.4,16.352,15.161,15.544,15.729z M17.605,12.503
		c-0.032,0.035-0.07,0.067-0.111,0.097c-0.184-0.513-0.506-0.986-0.938-1.396c0.127-0.078,0.279-0.121,0.442-0.121
		c0.239,0,0.456,0.094,0.606,0.247c0.15,0.15,0.244,0.359,0.244,0.587S17.756,12.352,17.605,12.503z"/>
</g>
</svg>
