<?xml version="1.0" encoding="utf-8"?>
<!-- Generator: Adobe Illustrator 16.0.0, SVG Export Plug-In . SVG Version: 6.00 Build 0)  -->
<!DOCTYPE svg PUBLIC "-//W3C//DTD SVG 1.1//EN" "http://www.w3.org/Graphics/SVG/1.1/DTD/svg11.dtd">
<svg version="1.1" id="Capa_1" xmlns="http://www.w3.org/2000/svg" xmlns:xlink="http://www.w3.org/1999/xlink" x="0px" y="0px"
	 width="24px" height="24px" viewBox="0 0 24 24" enable-background="new 0 0 24 24" xml:space="preserve">
<circle fill="#2CE2FF" cx="12" cy="12" r="10"/>
<path fill="#FFFFFF" d="M17.716,7.711c-0.425,0.248-0.921,0.461-1.418,0.533c-0.853-0.923-2.272-0.958-3.194-0.107
	c-0.566,0.568-0.814,1.383-0.638,2.165C10.62,10.196,8.953,9.345,7.782,7.96c-0.604,1.029-0.284,2.342,0.709,3.016
	c-0.354,0-0.709-0.106-1.029-0.285c0,0,0,0,0,0.036c0,1.064,0.746,1.989,1.81,2.201c-0.32,0.106-0.674,0.106-1.029,0.036
	c0.284,0.923,1.135,1.562,2.093,1.562c-0.816,0.64-1.774,0.957-2.803,0.957c-0.177,0-0.354,0-0.533-0.035
	c1.029,0.676,2.235,1.029,3.442,1.029c4.151,0,6.387-3.441,6.387-6.388c0-0.106,0-0.177,0-0.284C17.325,9.45,17.716,9.06,18,8.599
	c-0.425,0.177-0.852,0.319-1.275,0.354C17.184,8.669,17.538,8.244,17.716,7.711z"/>
</svg>
