<?xml version="1.0" encoding="utf-8"?>
<!-- Generator: Adobe Illustrator 16.0.0, SVG Export Plug-In . SVG Version: 6.00 Build 0)  -->
<!DOCTYPE svg PUBLIC "-//W3C//DTD SVG 1.1//EN" "http://www.w3.org/Graphics/SVG/1.1/DTD/svg11.dtd">
<svg version="1.1" id="Capa_1" xmlns="http://www.w3.org/2000/svg" xmlns:xlink="http://www.w3.org/1999/xlink" x="0px" y="0px"
	 width="24px" height="24px" viewBox="0 0 24 24" enable-background="new 0 0 24 24" xml:space="preserve">
<path fill="#F85753" d="M12,2C6.477,2,2,6.477,2,12c0,5.523,4.477,10,10,10c5.523,0,10-4.477,10-10C22,6.477,17.523,2,12,2z
	 M16.829,9.805c0,0.107,0,0.178,0,0.284c0,2.946-2.236,6.388-6.387,6.388c-1.207,0-2.413-0.354-3.442-1.029
	c0.179,0.035,0.356,0.035,0.533,0.035c1.029,0,1.987-0.318,2.803-0.957c-0.958,0-1.809-0.639-2.093-1.562
	c0.355,0.07,0.709,0.07,1.029-0.036c-1.064-0.212-1.81-1.137-1.81-2.201c0-0.036,0-0.036,0-0.036
	c0.32,0.179,0.675,0.285,1.029,0.285C7.498,10.302,7.178,8.989,7.782,7.96c1.171,1.385,2.838,2.236,4.684,2.342
	c-0.177-0.782,0.071-1.597,0.638-2.165c0.922-0.851,2.342-0.816,3.194,0.107c0.497-0.072,0.993-0.285,1.418-0.533
	c-0.178,0.533-0.532,0.958-0.991,1.242c0.424-0.035,0.85-0.177,1.275-0.354C17.716,9.06,17.325,9.45,16.829,9.805z"/>
</svg>
