<svg height="512" viewBox="0 0 176 176" width="512" xmlns="http://www.w3.org/2000/svg" xmlns:xlink="http://www.w3.org/1999/xlink"><linearGradient id="linear-gradient" gradientUnits="userSpaceOnUse" x1="88" x2="88" y1="1.3" y2="165.51"><stop offset="0" stop-color="#f00"/><stop offset="1" stop-color="#c00"/></linearGradient><g id="Layer_2" data-name="Layer 2"><g id="_02.youtube" data-name="02.youtube"><rect id="background" fill="url(#linear-gradient)" height="176" rx="16.33" width="176"/><path id="icon" d="m140.43 61.54c-2.2-6.77-9.48-10.87-16.18-11.81a343.16 343.16 0 0 0 -72.5 0c-6.7.94-14 5-16.18 11.81a137.42 137.42 0 0 0 0 52.93c2.2 6.76 9.48 10.87 16.18 11.81a343.16 343.16 0 0 0 72.5 0c6.7-.94 14-5 16.18-11.81a137.42 137.42 0 0 0 0-52.93zm-65.59 47.54v-42.16l34.32 21.08c-11.57 7.11-22.8 14-34.32 21.08z" fill="#fff"/></g></g></svg>