<?xml version="1.0" encoding="utf-8"?>
<!-- Generator: Adobe Illustrator 16.0.0, SVG Export Plug-In . SVG Version: 6.00 Build 0)  -->
<!DOCTYPE svg PUBLIC "-//W3C//DTD SVG 1.1//EN" "http://www.w3.org/Graphics/SVG/1.1/DTD/svg11.dtd">
<svg version="1.1" id="Capa_1" xmlns="http://www.w3.org/2000/svg" xmlns:xlink="http://www.w3.org/1999/xlink" x="0px" y="0px"
	 width="24px" height="24px" viewBox="0 0 24 24" enable-background="new 0 0 24 24" xml:space="preserve">
<g>
	<path fill="#F85753" d="M7,11.083c-0.24,0-0.455,0.094-0.607,0.247c-0.149,0.15-0.242,0.358-0.242,0.587s0.093,0.436,0.242,0.586
		c0.035,0.035,0.073,0.066,0.113,0.096c0.184-0.512,0.508-0.985,0.939-1.395C7.316,11.127,7.164,11.083,7,11.083z"/>
	<path fill="#F85753" d="M15.544,11.439c-0.893-0.632-2.146-1.022-3.543-1.022s-2.651,0.391-3.546,1.022
		C7.649,12.008,7.15,12.77,7.15,13.584c0,0.816,0.499,1.576,1.305,2.145C9.35,16.359,10.603,16.75,12,16.75s2.651-0.391,3.544-1.021
		c0.807-0.568,1.306-1.328,1.306-2.145C16.85,12.77,16.351,12.008,15.544,11.439z M9.167,12.752c0-0.461,0.374-0.834,0.835-0.834
		c0.459,0,0.832,0.373,0.832,0.834c0,0.459-0.373,0.832-0.832,0.832C9.541,13.584,9.167,13.211,9.167,12.752z M14.184,15.455
		C13.508,15.805,12.762,16,12,16s-1.508-0.195-2.182-0.545c-0.202-0.104-0.282-0.354-0.182-0.559
		c0.102-0.205,0.346-0.287,0.547-0.184c0.569,0.295,1.174,0.455,1.816,0.455c0.644,0,1.247-0.162,1.816-0.455
		c0.202-0.104,0.446-0.021,0.547,0.184C14.465,15.102,14.386,15.352,14.184,15.455z M14.001,13.584
		c-0.461,0-0.833-0.373-0.833-0.832c0-0.461,0.372-0.834,0.833-0.834c0.459,0,0.832,0.373,0.832,0.834
		C14.833,13.211,14.46,13.584,14.001,13.584z"/>
	<path fill="#F85753" d="M16.002,8.583c0.373,0,0.682-0.289,0.682-0.667S16.376,7.25,16.002,7.25c-0.375,0-0.686,0.286-0.686,0.666
		S15.627,8.583,16.002,8.583z"/>
	<path fill="#F85753" d="M12,2C6.477,2,2,6.477,2,12c0,5.523,4.477,10,10,10c5.523,0,10-4.477,10-10C22,6.477,17.523,2,12,2z
		 M17.662,13.447c0.004,0.045,0.005,0.09,0.005,0.137c0,2.209-2.538,4-5.667,4c-3.131,0-5.666-1.791-5.666-4
		c0-0.047,0.001-0.092,0.004-0.137c-0.591-0.256-1.004-0.844-1.004-1.53c0-0.92,0.746-1.667,1.666-1.667
		c0.428,0,0.816,0.161,1.111,0.424c0.918-0.61,2.125-1.009,3.461-1.079l0.727-2.434c0.047-0.221,0.259-0.363,0.478-0.32l1.893,0.383
		c0.25-0.48,0.753-0.808,1.333-0.808c0.827,0,1.499,0.671,1.499,1.5c0,0.828-0.672,1.501-1.499,1.501
		c-0.788,0-1.435-0.607-1.497-1.378l-1.525-0.308l-0.558,1.863c1.34,0.068,2.549,0.467,3.467,1.078
		c0.295-0.262,0.685-0.423,1.11-0.423c0.921,0,1.668,0.747,1.668,1.667C18.667,12.604,18.254,13.191,17.662,13.447z"/>
	<path fill="#F85753" d="M16.999,11.083c-0.163,0-0.315,0.043-0.443,0.121c0.432,0.41,0.754,0.883,0.938,1.395
		c0.041-0.029,0.079-0.061,0.112-0.096c0.15-0.151,0.243-0.358,0.243-0.586s-0.093-0.437-0.243-0.587
		C17.455,11.177,17.239,11.083,16.999,11.083z"/>
</g>
</svg>
