<?xml version="1.0" encoding="utf-8"?>
<!-- Generator: Adobe Illustrator 16.0.0, SVG Export Plug-In . SVG Version: 6.00 Build 0)  -->
<!DOCTYPE svg PUBLIC "-//W3C//DTD SVG 1.1//EN" "http://www.w3.org/Graphics/SVG/1.1/DTD/svg11.dtd">
<svg version="1.1" id="Capa_1" xmlns="http://www.w3.org/2000/svg" xmlns:xlink="http://www.w3.org/1999/xlink" x="0px" y="0px"
	 width="24px" height="24px" viewBox="0 0 24 24" enable-background="new 0 0 24 24" xml:space="preserve">
<circle fill="#1E859F" cx="12" cy="12" r="10"/>
<path id="path2442" fill="#EEF5FC" d="M11.847,15.601h0.734c0,0,0.222-0.025,0.334-0.146c0.104-0.112,0.101-0.322,0.101-0.322
	s-0.014-0.985,0.443-1.13c0.45-0.143,1.027,0.951,1.641,1.372c0.464,0.318,0.816,0.249,0.816,0.249l1.639-0.022
	c0,0,0.856-0.054,0.45-0.728c-0.033-0.055-0.237-0.499-1.218-1.41c-1.028-0.953-0.891-0.799,0.347-2.448
	c0.754-1.005,1.056-1.619,0.962-1.881c-0.091-0.25-0.645-0.184-0.645-0.184l-1.845,0.011c0,0-0.138-0.019-0.239,0.042
	c-0.099,0.059-0.162,0.198-0.162,0.198s-0.292,0.777-0.682,1.438c-0.821,1.395-1.15,1.469-1.284,1.382
	c-0.313-0.202-0.234-0.811-0.234-1.244c0-1.352,0.205-1.916-0.399-2.062c-0.201-0.048-0.349-0.081-0.861-0.086
	c-0.659-0.006-1.215,0.002-1.531,0.157C10.003,8.89,9.842,9.119,9.94,9.132c0.122,0.016,0.398,0.074,0.544,0.273
	c0.19,0.257,0.183,0.835,0.183,0.835s0.109,1.591-0.254,1.789c-0.249,0.136-0.589-0.141-1.322-1.407
	C8.716,9.975,8.433,9.258,8.433,9.258S8.378,9.125,8.281,9.053C8.163,8.965,7.997,8.938,7.997,8.938L6.244,8.95
	c0,0-0.263,0.007-0.359,0.122C5.798,9.173,5.877,9.383,5.877,9.383s1.373,3.211,2.927,4.831
	C10.229,15.697,11.847,15.601,11.847,15.601"/>
</svg>
