<svg height="512" viewBox="0 0 176 176" width="512" xmlns="http://www.w3.org/2000/svg" xmlns:xlink="http://www.w3.org/1999/xlink"><linearGradient id="linear-gradient" gradientUnits="userSpaceOnUse" x1="88" x2="88" y1="-2.56" y2="164.01"><stop offset="0" stop-color="#00beff"/><stop offset="1" stop-color="#0097cc"/></linearGradient><g id="Layer_2" data-name="Layer 2"><g id="_04.twitter" data-name="04.twitter"><rect id="background" fill="url(#linear-gradient)" height="176" rx="16.33" width="176"/><path id="icon" d="m144.79 55.71a47.15 47.15 0 0 1 -9.43 10.35 4 4 0 0 0 -1.51 3.14v.37a66.11 66.11 0 0 1 -4.26 23 67.31 67.31 0 0 1 -12.53 21 61.37 61.37 0 0 1 -27.06 17.86 68 68 0 0 1 -21.34 3.32 65.13 65.13 0 0 1 -32.66-8.82 1.87 1.87 0 0 1 -.89-2.08 1.81 1.81 0 0 1 1.77-1.36h2.74a43.74 43.74 0 0 0 24.47-7.49 23.78 23.78 0 0 1 -18.78-16.12 1.24 1.24 0 0 1 1.41-1.6 21.59 21.59 0 0 0 4 .38h.5a23.78 23.78 0 0 1 -13.85-21.88 1.25 1.25 0 0 1 1.85-1.08 21 21 0 0 0 5.4 2.1 23.75 23.75 0 0 1 -3.85-28.8 1.24 1.24 0 0 1 2-.17 62.17 62.17 0 0 0 42.77 22.82h.09a.92.92 0 0 0 .65-.3.87.87 0 0 0 .21-.67 25.61 25.61 0 0 1 .56-8.68 22.56 22.56 0 0 1 3-7 23 23 0 0 1 12.54-9.6 25.33 25.33 0 0 1 7.51-1.16 23.69 23.69 0 0 1 15.69 5.92 3.09 3.09 0 0 0 2 .78 3 3 0 0 0 .72-.1 43.66 43.66 0 0 0 11.59-4.79 1.25 1.25 0 0 1 1.82 1.45 23.66 23.66 0 0 1 -6.24 9.94 43.9 43.9 0 0 0 7.58-2.56 1.24 1.24 0 0 1 1.53 1.83z" fill="#fff"/></g></g></svg>