<?xml version="1.0" encoding="utf-8"?>
<!-- Generator: Adobe Illustrator 16.0.0, SVG Export Plug-In . SVG Version: 6.00 Build 0)  -->
<!DOCTYPE svg PUBLIC "-//W3C//DTD SVG 1.1//EN" "http://www.w3.org/Graphics/SVG/1.1/DTD/svg11.dtd">
<svg version="1.1" id="Capa_1" xmlns="http://www.w3.org/2000/svg" xmlns:xlink="http://www.w3.org/1999/xlink" x="0px" y="0px"
	 width="24px" height="24px" viewBox="0 0 24 24" enable-background="new 0 0 24 24" xml:space="preserve">
<path fill="#F85753" d="M12,2C6.477,2,2,6.477,2,12c0,5.523,4.477,10,10,10c5.523,0,10-4.477,10-10C22,6.477,17.523,2,12,2z
	 M17.555,15.601l-1.639,0.022c0,0-0.353,0.069-0.816-0.249c-0.613-0.421-1.19-1.515-1.641-1.372c-0.457,0.145-0.443,1.13-0.443,1.13
	s0.004,0.21-0.101,0.322c-0.112,0.121-0.334,0.146-0.334,0.146h-0.734c0,0-1.618,0.097-3.043-1.387
	C7.25,12.595,5.877,9.383,5.877,9.383s-0.079-0.21,0.007-0.312C5.981,8.957,6.244,8.95,6.244,8.95l1.753-0.012
	c0,0,0.166,0.027,0.284,0.115c0.097,0.072,0.152,0.205,0.152,0.205s0.284,0.717,0.659,1.365c0.732,1.266,1.073,1.542,1.322,1.407
	c0.363-0.198,0.254-1.789,0.254-1.789s0.007-0.578-0.183-0.835c-0.146-0.199-0.422-0.257-0.544-0.273
	c-0.098-0.013,0.063-0.243,0.273-0.345c0.315-0.154,0.872-0.163,1.531-0.157c0.513,0.005,0.661,0.038,0.861,0.086
	c0.604,0.146,0.399,0.709,0.399,2.062c0,0.433-0.078,1.042,0.234,1.244c0.134,0.086,0.463,0.013,1.284-1.382
	c0.39-0.661,0.682-1.438,0.682-1.438s0.063-0.139,0.162-0.198c0.102-0.061,0.239-0.042,0.239-0.042l1.845-0.011
	c0,0,0.554-0.066,0.645,0.184c0.094,0.263-0.208,0.876-0.962,1.881c-1.237,1.649-1.375,1.495-0.347,2.448
	c0.98,0.911,1.185,1.355,1.218,1.41C18.411,15.547,17.555,15.601,17.555,15.601z"/>
</svg>
